<svg height="512" viewBox="0 0 58 60" width="512" xmlns="http://www.w3.org/2000/svg"><g id="Page-1" fill="none" fill-rule="evenodd"><g id="062---Open-Folder" fill-rule="nonzero"><g id="Icons" transform="translate(1 1)"><path id="Shape" d="m43 35.059v10.941c0 1.6568542-1.3431458 3-3 3h-22v-4.42c.0009983-.378673.1084169-.7494404.31-1.07l2.38-3.8c.2027496-.3163382.3103507-.6842646.31-1.06v-24.1c-.0006596-1.0957792-.5987072-2.1040261-1.56-2.63l-19.44-11.92h36c1.6568542 0 3 1.34314575 3 3v22.94c-.0009672.6951815.1818775 1.3782617.53 1.98l2.94 5.16c.3479522.6014448.5307909 1.2841576.53 1.979z" fill="#3f51b5"/><path id="Shape" d="m42.47 33.079-2.94-5.16c-.3481225-.6017383-.5309672-1.2848185-.53-1.98v-22.939c0-1.65685425-1.3431458-3-3-3h-3c1.6568542 0 3 1.34314575 3 3v22.94c-.0009672.6951815.1818775 1.3782617.53 1.98l2.94 5.16c.3481225.6017383.5309672 1.2848185.53 1.98v10.94c0 1.6568542-1.3431458 3-3 3h3c1.6568542 0 3-1.3431458 3-3v-10.941c.0009672-.6951815-.1818775-1.3782617-.53-1.98z" fill="#283593"/><path id="Shape" d="m21 14.549v24.1c.0003507.3757354-.1072504.7436618-.31 1.06l-2.38 3.8c-.2015831.3205596-.3090017.691327-.31 1.07v11.421c-.0003672.6920863-.3585153 1.3347954-.9468854 1.6992185-.5883702.364423-1.3233301.3987601-1.9431146.0907815l-15.11-8.79v-49l19.44 11.92c.9609788.5258017 1.5589753 1.5335793 1.56 2.629z" fill="#02a9f4"/><path id="Shape" d="m19.44 11.919-19.44-11.919v1.84l16.44 10.08c.9609788.5258017 1.5589753 1.5335793 1.56 2.629v24.1c.0003507.3757354-.1072504.7436618-.31 1.06l-2.38 3.8c-.2015831.3205596-.3090017.691327-.31 1.07v11.421c.0025454.5220015-.2020879 1.0236948-.569 1.395l.679.4c.6205814.3083761 1.3565708.2735309 1.9452417-.0920969.588671-.3656277.9461237-1.0099274.9447583-1.7029031v-11.421c.0009983-.378673.1084169-.7494404.31-1.07l2.38-3.8c.2027496-.3163382.3103507-.6842646.31-1.06v-24.1c-.0006596-1.0957792-.5987072-2.1040261-1.56-2.63z" fill="#0377bc"/><path id="Shape" d="m4 11c-.55228475 0-1-.4477153-1-1v-2c0-.55228475.44771525-1 1-1s1 .44771525 1 1v2c0 .5522847-.44771525 1-1 1z" fill="#f5f5f5"/><path id="Shape" d="m4 34c-.55228475 0-1-.4477153-1-1v-18c0-.5522847.44771525-1 1-1s1 .4477153 1 1v18c0 .5522847-.44771525 1-1 1z" fill="#f5f5f5"/><path id="Shape" d="m33.43 18.546 1.084 19.23c.0172405.327382.2255684.6139422.5316692.731324.3061007.1173819.6526148.0435895.8843308-.188324l4.361-4.361c12.983 12.984 5.657 24.042 5.657 24.042 19.8-19.8 4.242-33.941 4.242-33.941l3.654-3.653c.2325843-.231634.3068057-.5785805.1893469-.8850983-.1174589-.3065178-.4045289-.5150161-.7323469-.5319017l-19.022-1.289c-.2248925-.0007975-.4408474.0879822-.6001526.2467245s-.2488488.3743816-.2488474.5992755z" fill="#e91e63"/><path id="Shape" d="m50.19 24.059 3.654-3.653c.2325843-.231634.3068057-.5785805.1893469-.8850983-.1174589-.3065178-.4045289-.5150161-.7323469-.5319017l-19.022-1.289c-.1763688.003863-.3469324.0637529-.487.171l16.508 1.118c.327818.0168856.614888.2253839.7323469.5319017.1174588.3065178.0432374.6534643-.1893469.8850983l-3.653 3.653s12.589 11.46.671 28.187c-.2326603 2.0297052-.8840652 3.9890277-1.913 5.754 19.799-19.8 4.242-33.941 4.242-33.941z" fill="#ad1457"/></g><g id="Layer_2" fill="#000"><path id="Shape" d="m37 0h-36c-.55228475 0-1 .44771525-1 1v49c.00072257.3565418.19122471.6857295.5.864l15.161 8.817c.9293794.4635481 2.0324014.4134357 2.9159191-.132476.8835176-.5459117 1.4218349-1.509957 1.4230809-2.548524v-6h21c2.209139 0 4-1.790861 4-4v-5.839c5.947 9.624 1.348 16.928 1.114 17.286-.2855532.428192-.1994628 1.0031985.1989763 1.3289826.3984391.325784.9790881.2959376 1.3420237-.0689826 7.028-7.028 10.507-14.168 10.339-21.22-.1593719-4.9705305-2.0722462-9.7243773-5.4-13.42l2.954-2.955c.5100897-.5084908.674262-1.2690039.4193573-1.9426344s-.8814213-1.1349435-1.6003573-1.1783656l-13.367-.907v-14.084c0-2.209139-1.790861-4-4-4zm-18.541 43.98c-.3004071.4795623-.4594948 1.0341164-.459 1.6v11.42c.0029357.3473579-.1771262.6706335-.474.851-.2732327.1799662-.6194685.2078763-.918.074l-14.608-8.5v-46.639l17.963 11.014c.6380308.3505171 1.0352181 1.0200286 1.037 1.748v24.1c.000265.1885374-.0527745.3733089-.153.533zm24.541 3.02c0 1.1045695-.8954305 2-2 2h-21v-3.424c-.0000766-.1881975.0529555-.3725967.153-.532l2.388-3.8c.2997719-.4776339.4588536-1.0300875.459-1.594v-24.1c.0041084-1.44351-.7738959-2.776029-2.033-3.482l-16.422-10.068h32.455c1.1045695 0 2 .8954305 2 2v13.949l-3.721-.249c-1.0211076.0011032-1.8484489.8288919-1.849 1.85v.057l1.084 19.221c.036643.7227421.4957525 1.3560068 1.1712707 1.6155719.6755181.2595651 1.4405483.096671 1.9517293-.4155719l3.644-3.643c.628.663 1.194 1.318 1.718 1.967zm7.483-22.648c-.1932866.1934474-.2989194.4576113-.2923069.7309936.0066126.2733823.1248936.5321302.3273069.7160064 3.3558771 3.410305 5.3118328 7.954459 5.482 12.736.125 5.266-2.016 10.639-6.374 16.022.929-4.7.478-12.2-7.623-20.306-.3904999-.3903819-1.0235001-.3903819-1.414 0l-4.093 4.093-1.056-18.634 18.433 1.252z"/></g></g></g></svg>