<?xml version="1.0" encoding="iso-8859-1"?>
<!-- Generator: Adobe Illustrator 19.0.0, SVG Export Plug-In . SVG Version: 6.00 Build 0)  -->
<svg version="1.1" id="Capa_1" xmlns="http://www.w3.org/2000/svg" xmlns:xlink="http://www.w3.org/1999/xlink" x="0px" y="0px"
	 viewBox="0 0 512.029 512.029" style="enable-background:new 0 0 512.029 512.029;" xml:space="preserve">
<g>
	<g>
		<path d="M224.018,0.015c-123.52,0-224,81.824-224,182.4c0,50.944,25.6,98.72,70.784,133.088
			c-14.944,23.328-34.272,46.944-58.656,52.96c-7.712,1.92-12.864,9.216-12.064,17.12c0.8,7.936,7.296,14.048,15.264,14.4
			c0.352,0,1.728,0.064,4.032,0.064c16.544,0,80.416-2.656,152.896-40.256c16.608,3.36,33.984,5.024,51.744,5.024
			c123.488,0,224-81.824,224-182.4S347.506,0.015,224.018,0.015z"/>
	</g>
</g>
<g>
	<g>
		<path d="M499.858,479.279c-20.384-5.024-35.808-19.936-46.592-34.72c37.536-29.408,58.752-69.856,58.752-112.96
			c0-36.096-15.168-69.28-40.352-95.808c-28.448,92.448-128.512,161.024-247.648,161.024c-15.904,0-31.616-1.216-46.88-3.616
			c-9.088,4.384-17.984,8.256-26.72,11.712c32.288,49.6,96.16,83.488,169.6,83.488c15.008,0,29.568-1.376,43.392-4.064
			c45.92,23.392,87.808,27.712,112.448,27.68c13.504,0,21.824-1.28,22.752-1.44c7.488-1.216,13.088-7.552,13.408-15.136
			C512.306,487.855,507.25,481.071,499.858,479.279z"/>
	</g>
</g>
<g>
</g>
<g>
</g>
<g>
</g>
<g>
</g>
<g>
</g>
<g>
</g>
<g>
</g>
<g>
</g>
<g>
</g>
<g>
</g>
<g>
</g>
<g>
</g>
<g>
</g>
<g>
</g>
<g>
</g>
</svg>
