<?xml version="1.0" encoding="iso-8859-1"?>
<!-- Generator: Adobe Illustrator 19.0.0, SVG Export Plug-In . SVG Version: 6.00 Build 0)  -->
<svg version="1.1" id="Capa_1" xmlns="http://www.w3.org/2000/svg" xmlns:xlink="http://www.w3.org/1999/xlink" x="0px" y="0px"
	 viewBox="0 0 512 512" style="enable-background:new 0 0 512 512;" xml:space="preserve">
<g>
	<g>
		<path d="M282.947,138.105H94.316c-5.578,0-10.105,4.52-10.105,10.105c0,5.578,4.527,10.105,10.105,10.105h188.631
			c5.578,0,10.105-4.527,10.105-10.105C293.052,142.625,288.525,138.105,282.947,138.105z"/>
	</g>
</g>
<g>
	<g>
		<path d="M282.947,198.737H94.316c-5.578,0-10.105,4.52-10.105,10.105c0,5.578,4.527,10.105,10.105,10.105h188.631
			c5.578,0,10.105-4.527,10.105-10.105C293.052,203.257,288.525,198.737,282.947,198.737z"/>
	</g>
</g>
<g>
	<g>
		<path d="M424.421,138.105h-67.368c-5.578,0-10.105,4.52-10.105,10.105c0,5.578,4.527,10.105,10.105,10.105h67.368
			c5.578,0,10.105-4.527,10.105-10.105C434.526,142.625,429.999,138.105,424.421,138.105z"/>
	</g>
</g>
<g>
	<g>
		<path d="M424.421,198.737h-67.368c-5.578,0-10.105,4.52-10.105,10.105c0,5.578,4.527,10.105,10.105,10.105h67.368
			c5.578,0,10.105-4.527,10.105-10.105C434.526,203.257,429.999,198.737,424.421,198.737z"/>
	</g>
</g>
<g>
	<g>
		<path d="M420.747,356.949c-6.494-4.749-13.703-7.209-20.662-9.189c-0.108-0.027-0.195-0.047-0.303-0.081v-34.383
			c4.084,1.018,7.197,2.466,9.252,4.083c1.899,1.482,3.126,3.052,3.968,4.803c0.843,1.752,1.307,3.766,1.313,6.218
			c0,5.578,4.527,10.105,10.105,10.105c5.578,0,10.105-4.527,10.105-10.105c0-5.153-1.058-10.274-3.288-14.929
			c-3.322-7.02-9.27-12.732-16.748-16.351c-4.372-2.129-9.317-3.543-14.686-4.42v-3.018c0-5.585-4.527-10.105-10.105-10.105
			c-5.578,0-10.105,4.52-10.105,10.105v2.56c-3.947,0.525-7.64,1.387-10.975,2.661c-8.286,3.12-14.511,8.569-18.318,14.686
			c-3.84,6.13-5.43,12.746-5.436,18.809c-0.027,6.272,1.516,12.146,4.473,16.936c2.566,4.204,6.05,7.424,9.728,9.836
			c6.481,4.21,13.535,6.332,20.366,8.172c0.055,0.013,0.101,0.027,0.148,0.04v37.645c-4.069-0.93-7.249-2.445-9.405-4.278
			c-3.388-2.965-5.039-6.434-5.106-11.304c0-5.585-4.527-10.105-10.105-10.105c-5.578,0-10.105,4.52-10.105,10.105
			c-0.074,10.321,4.412,20.17,12.254,26.725c6.022,5.093,13.743,8.233,22.467,9.425v2.863c0,5.585,4.527,10.105,10.105,10.105
			s10.105-4.52,10.105-10.105v-3.214c6.858-0.984,13.407-2.836,19.253-6.447c4.581-2.857,8.65-6.892,11.372-11.978
			c2.749-5.079,4.102-11.028,4.089-17.375c0.013-6.608-1.421-12.679-4.238-17.772C427.827,363.22,424.426,359.657,420.747,356.949z
			 M379.593,342.359c-4.473-1.421-8.11-2.991-10.28-4.682c-1.529-1.158-2.419-2.23-3.086-3.509c-0.646-1.3-1.139-2.978-1.152-5.76
			c-0.007-3.362,1.253-7.464,4.278-10.523c1.536-1.557,3.537-2.978,6.447-4.096c1.105-0.425,2.392-0.775,3.793-1.071V342.359z
			 M412.65,393.215c-0.728,1.34-1.637,2.425-2.923,3.463c-1.899,1.536-4.749,2.917-8.549,3.86c-0.418,0.108-0.95,0.142-1.381,0.236
			v-31.932c2.244,0.775,4.306,1.589,6.003,2.519c3.065,1.631,5.026,3.328,6.306,5.261c1.26,1.954,2.177,4.386,2.209,8.819
			C414.301,389.059,413.607,391.429,412.65,393.215z"/>
	</g>
</g>
<g>
	<g>
		<path d="M269.474,309.894H107.789c-14.82,0-26.948,12.126-26.948,26.948v40.421c0,14.82,12.126,26.947,26.948,26.947h161.684
			c14.82,0,26.948-12.126,26.948-26.947v-40.421C296.421,322.02,284.294,309.894,269.474,309.894z M269.474,383.999H107.789
			c-3.651,0-6.737-3.086-6.737-6.737v-40.421c0-3.651,3.086-6.737,6.737-6.737h161.684c3.651,0,6.737,3.086,6.737,6.737v40.421
			h0.001C276.21,380.913,273.125,383.999,269.474,383.999z"/>
	</g>
</g>
<g>
	<g>
		<path d="M485.052,26.947h-53.895v13.473c0,7.445-6.036,13.473-13.473,13.473c-7.438,0-13.473-6.03-13.473-13.473V26.947h-53.895
			v13.473c0,7.445-6.036,13.473-13.473,13.473s-13.473-6.03-13.473-13.473V26.947h-53.895v13.473
			c0,7.445-6.036,13.473-13.473,13.473c-7.437,0-13.473-6.03-13.473-13.473V26.947h-53.895v13.473
			c0,7.445-6.036,13.473-13.473,13.473c-7.438,0-13.473-6.03-13.473-13.473V26.947h-53.899v13.473
			c0,7.445-6.036,13.473-13.473,13.473c-7.437,0-13.473-6.03-13.473-13.473V26.947H26.948C12.126,26.947,0,39.073,0,53.895v404.21
			c0,14.82,12.126,26.948,26.948,26.948h458.105c14.82,0,26.947-12.126,26.947-26.948V53.895
			C512,39.073,499.873,26.947,485.052,26.947z M485.052,464.842H26.948c-3.651,0-6.737-3.086-6.737-6.737V53.895
			c0-3.651,3.086-6.737,6.737-6.737h34.364c3.126,15.353,16.742,26.947,33.004,26.947c16.262,0,29.884-11.594,33.004-26.947h14.828
			c3.126,15.353,16.742,26.947,33.004,26.947c16.262,0,29.884-11.594,33.004-26.947h14.828
			c3.126,15.353,16.742,26.947,33.004,26.947s29.884-11.594,33.004-26.947h14.828c3.126,15.353,16.742,26.947,33.004,26.947
			s29.884-11.594,33.004-26.947h14.828c3.126,15.353,16.742,26.947,33.004,26.947s29.884-11.594,33.004-26.947h34.391
			c3.651,0,6.737,3.086,6.737,6.737v404.21h0.001C491.789,461.756,488.703,464.842,485.052,464.842z"/>
	</g>
</g>
<g>
</g>
<g>
</g>
<g>
</g>
<g>
</g>
<g>
</g>
<g>
</g>
<g>
</g>
<g>
</g>
<g>
</g>
<g>
</g>
<g>
</g>
<g>
</g>
<g>
</g>
<g>
</g>
<g>
</g>
</svg>
