<svg height="512pt" viewBox="-31 0 512 512" width="512pt" xmlns="http://www.w3.org/2000/svg"><path d="m405 70h-70v-15c0-8.285156-6.714844-15-15-15h-42.078125c-6.546875-23.0625-27.792969-40-52.921875-40s-46.375 16.9375-52.921875 40h-42.078125c-8.285156 0-15 6.714844-15 15v15h-70c-24.8125 0-45 20.1875-45 45v352c0 24.8125 20.1875 45 45 45h360c24.8125 0 45-20.1875 45-45v-352c0-24.8125-20.1875-45-45-45zm-260 0h40c8.285156 0 15-6.714844 15-15 0-13.785156 11.214844-25 25-25s25 11.214844 25 25c0 8.285156 6.714844 15 15 15h40v30h-160zm-30 30v15c0 8.285156 6.714844 15 15 15h190c8.285156 0 15-6.714844 15-15v-15h25v322h-270v-322zm305 367c0 8.269531-6.730469 15-15 15h-360c-8.269531 0-15-6.730469-15-15v-352c0-8.269531 6.730469-15 15-15h15v337c0 8.285156 6.714844 15 15 15h300c8.285156 0 15-6.714844 15-15v-337h15c8.269531 0 15 6.730469 15 15zm0 0"/><path d="m135 361h46c8.285156 0 15-6.714844 15-15s-6.714844-15-15-15h-46c-8.285156 0-15 6.714844-15 15s6.714844 15 15 15zm0 0"/><path d="m135 246h46c8.285156 0 15-6.714844 15-15s-6.714844-15-15-15h-46c-8.285156 0-15 6.714844-15 15s6.714844 15 15 15zm0 0"/><path d="m259.394531 241.605469c2.925781 2.929687 6.765625 4.394531 10.605469 4.394531s7.679688-1.464844 10.605469-4.394531l45-45c5.859375-5.855469 5.859375-15.355469 0-21.210938-5.855469-5.859375-15.355469-5.859375-21.210938 0l-34.394531 34.390625-14.394531-14.390625c-5.855469-5.859375-15.355469-5.859375-21.210938 0-5.859375 5.855469-5.859375 15.351563 0 21.210938zm0 0"/><path d="m259.394531 356.605469c2.925781 2.929687 6.765625 4.394531 10.605469 4.394531s7.679688-1.464844 10.605469-4.394531l45-45c5.859375-5.855469 5.859375-15.355469 0-21.210938-5.855469-5.859375-15.355469-5.859375-21.210938 0l-34.394531 34.390625-14.394531-14.390625c-5.855469-5.859375-15.355469-5.859375-21.210938 0-5.859375 5.855469-5.859375 15.351563 0 21.210938zm0 0"/></svg>