<?xml version="1.0" encoding="utf-8"?>
<!-- Generator: Adobe Illustrator 24.0.1, SVG Export Plug-In . SVG Version: 6.00 Build 0)  -->
<svg version="1.1" id="swift_logo_xA0_Image_1_" xmlns="http://www.w3.org/2000/svg" xmlns:xlink="http://www.w3.org/1999/xlink"
	 x="0px" y="0px" viewBox="0 0 180 74" style="enable-background:new 0 0 180 74;" xml:space="preserve">
<style type="text/css">
	.st0{fill:#FF5500;}
	.st1{fill:#555555;}
</style>
<g>
	<path class="st0" d="M42.6,32.4c-0.9-0.9-2-1.7-3.3-2.4c-1.3-0.7-2.6-1.4-4.1-2s-2.7-1.2-3.7-1.6c-1-0.5-1.8-0.9-2.3-1.3
		c-0.6-0.4-1-0.8-1.2-1.3c-0.2-0.4-0.4-0.9-0.4-1.5c0-1.1,0.6-2.1,1.7-3s2.7-1.4,4.7-1.4c2.1,0,4,0.4,5.6,1.2c1.6,0.8,3.2,2,4.9,3.5
		l6.6-6.6c-1.9-2-4.1-3.6-6.7-4.7c-2.6-1.2-5.8-1.7-9.6-1.7c-2.3,0-4.5,0.3-6.6,1s-3.9,1.6-5.5,2.9c-1.6,1.2-2.8,2.8-3.8,4.5
		c-0.9,1.8-1.4,3.8-1.4,6c0,1.6,0.3,3,0.9,4.2s1.4,2.3,2.4,3.2s2.1,1.7,3.4,2.4s2.6,1.3,4,1.9c1.5,0.6,2.7,1.1,3.6,1.6
		c1,0.5,1.7,0.9,2.3,1.4c0.6,0.4,1,0.9,1.2,1.3s0.3,0.9,0.3,1.5c0,1.4-0.6,2.5-1.9,3.3c-1.2,0.8-2.8,1.2-4.8,1.2
		c-2.5,0-4.7-0.5-6.7-1.5s-3.8-2.4-5.5-4.3l-7.2,6.1c4.2,5.4,10.5,8,19,8c2.3,0,4.5-0.3,6.6-1c2.1-0.6,3.9-1.6,5.5-2.8
		s2.8-2.8,3.8-4.6s1.4-3.9,1.4-6.1c0-1.6-0.3-3-0.8-4.2C44.3,34.4,43.5,33.3,42.6,32.4z"/>
	<path class="st0" d="M157.2,42.4l3.7-14.1h7.9l2.2-8h-7.9l2.3-8.5h-9.5l-2.3,8.5h-8.2h-2.8h-5.2l0.2-0.9c0.6-2.4,2.2-3.6,4.7-3.6
		c0.7,0,1.4,0.1,2.1,0.2c0.7,0.1,1.4,0.3,2,0.6l2.1-7.9c-0.8-0.3-1.7-0.5-2.8-0.7s-2.3-0.3-3.6-0.3c-3.5,0-6.4,0.8-8.7,2.5
		s-3.9,4.4-4.8,8.2l-0.4,1.8h-10.7H108h-6.4h-5.4h-4l-11,20.3l-0.9-20.4H72L60.3,40.5l0.1-20.2h-9.6L52,53.9h8.5l12-20.5l0.9,20.5
		H82l14.8-25.6h8.8l-6.8,25.4h9.5l6.8-25.4h10.8L119,53.7h9.5l6.9-25.4h5h2.8h8.2l-4,15.2c-0.2,0.8-0.4,1.5-0.5,2.1
		s-0.2,1.4-0.2,2.1c0,1.9,0.7,3.4,2.1,4.7c1.4,1.2,3.6,1.9,6.4,1.9c2.6,0,4.9-0.5,6.9-1.4l2.2-8c-0.8,0.3-1.6,0.6-2.5,0.8
		s-1.7,0.3-2.4,0.3c-1.7,0-2.6-0.7-2.6-2c0-0.2,0-0.4,0.1-0.7C157,42.9,157.1,42.6,157.2,42.4z"/>
</g>
<path class="st1" d="M108.8,10.9l-2.5,5.1c6.6,0.2,12.8-1.1,18.2-5.1L121,2.5C117.6,7.6,113.6,10.5,108.8,10.9z"/>
<g>
	<path class="st1" d="M151.2,71.6h2.4V59.9l-0.2,0.3l6.5,11.4h2.7v-15h-2.4v11.9l0.2-0.3l-6.5-11.6h-2.7V71.6z M142.8,69.3
		c-0.6,0-1.1-0.1-1.5-0.4c-0.4-0.2-0.8-0.6-1-1.1c-0.2-0.5-0.4-1-0.4-1.6v-4.4c0-0.6,0.1-1.1,0.4-1.6c0.2-0.5,0.6-0.8,1-1.1
		c0.4-0.2,0.9-0.4,1.5-0.4s1.1,0.1,1.5,0.4c0.4,0.2,0.8,0.6,1,1.1c0.2,0.5,0.4,1,0.4,1.6v4.4c0,0.6-0.1,1.1-0.4,1.6
		c-0.2,0.5-0.6,0.8-1,1.1C143.9,69.2,143.4,69.3,142.8,69.3z M142.8,71.8c1.1,0,2-0.2,2.8-0.7c0.8-0.5,1.4-1.1,1.9-1.9
		c0.4-0.8,0.7-1.8,0.7-2.9V62c0-1.1-0.2-2.1-0.7-2.9c-0.4-0.8-1.1-1.5-1.9-1.9c-0.8-0.5-1.8-0.7-2.8-0.7s-2,0.2-2.8,0.7
		c-0.8,0.5-1.4,1.1-1.9,1.9c-0.4,0.8-0.7,1.8-0.7,2.9v4.3c0,1.1,0.2,2.1,0.7,2.9c0.4,0.8,1.1,1.5,1.9,1.9
		C140.8,71.6,141.8,71.8,142.8,71.8z M130.1,71.8c0.9,0,1.7-0.2,2.4-0.6c0.7-0.4,1.3-0.9,1.8-1.7c0.5-0.7,0.8-1.6,1-2.6h-2.5
		c-0.1,0.5-0.3,0.9-0.6,1.3c-0.3,0.4-0.6,0.6-1,0.8c-0.4,0.2-0.8,0.3-1.2,0.3c-0.6,0-1.1-0.1-1.5-0.4c-0.4-0.3-0.7-0.6-1-1.1
		c-0.2-0.5-0.3-1-0.3-1.7V62c0-0.6,0.1-1.2,0.3-1.7c0.2-0.5,0.6-0.8,1-1.1c0.4-0.3,0.9-0.4,1.5-0.4c0.4,0,0.8,0.1,1.2,0.3
		c0.4,0.2,0.7,0.5,1,0.8c0.3,0.4,0.5,0.8,0.6,1.3h2.5c-0.2-1-0.5-1.9-1-2.6c-0.5-0.7-1.1-1.3-1.8-1.7c-0.7-0.4-1.6-0.6-2.5-0.6
		c-1.1,0-2,0.2-2.8,0.7c-0.8,0.5-1.4,1.1-1.9,1.9c-0.4,0.8-0.6,1.8-0.6,3v4.1c0,1.2,0.2,2.1,0.6,3c0.4,0.8,1,1.5,1.9,1.9
		C128,71.6,129,71.8,130.1,71.8z M113.4,59h8.9v-2.4h-8.9V59z M113.4,65.3h7.7V63h-7.7V65.3z M113.4,71.6h8.9v-2.4h-8.9V71.6z
		 M112.4,71.6h2.5V56.6h-2.5V71.6z M106.8,71.6h3l-4-7.2l-2.6,0.5L106.8,71.6z M98.5,71.6h2.5V56.6h-2.5V71.6z M99.6,65.4h5.3
		c0.8,0,1.6-0.2,2.2-0.5c0.6-0.4,1.1-0.9,1.5-1.6c0.4-0.7,0.5-1.4,0.5-2.3c0-0.9-0.2-1.6-0.5-2.3c-0.4-0.7-0.9-1.2-1.5-1.6
		c-0.6-0.4-1.4-0.5-2.2-0.5h-5.3v2.4h5.2c0.4,0,0.7,0.1,0.9,0.3c0.3,0.2,0.5,0.4,0.6,0.7c0.1,0.3,0.2,0.7,0.2,1.1
		c0,0.4-0.1,0.8-0.2,1.1c-0.1,0.3-0.4,0.6-0.6,0.7c-0.3,0.2-0.6,0.3-0.9,0.3h-5.2V65.4z"/>
</g>
</svg>
