<?xml version="1.0" encoding="utf-8"?>
<!-- Generator: Adobe Illustrator 18.1.1, SVG Export Plug-In . SVG Version: 6.00 Build 0)  -->
<svg version="1.1" id="swift_logo_xA0_Image_1_" xmlns="http://www.w3.org/2000/svg" xmlns:xlink="http://www.w3.org/1999/xlink"
	 x="0px" y="0px" viewBox="0 0 180 180" enable-background="new 0 0 180 180" xml:space="preserve">
<path fill="#868686" d="M91.1,107.1h1v7.8h-1.1V109l0.1,0.3l-1.9,4.4h-0.8l-1.9-4.3l0.1-0.5v5.9h-1.1v-7.8h1l2.3,5.2L91.1,107.1z"/>
<path fill="#868686" d="M95.2,114.6c-0.4-0.2-0.7-0.6-1-1s-0.3-0.9-0.3-1.5v-2.2c0-0.6,0.1-1.1,0.3-1.5c0.2-0.4,0.5-0.8,1-1
	s0.9-0.4,1.4-0.4s1,0.1,1.4,0.4s0.7,0.6,1,1c0.2,0.4,0.3,0.9,0.3,1.5v2.2c0,0.6-0.1,1.1-0.3,1.5s-0.5,0.8-1,1
	c-0.4,0.2-0.9,0.4-1.4,0.4S95.7,114.9,95.2,114.6z M97.5,113.7c0.2-0.1,0.4-0.4,0.6-0.6c0.1-0.3,0.2-0.6,0.2-0.9v-2.3
	c0-0.4-0.1-0.7-0.2-0.9c-0.1-0.3-0.3-0.5-0.6-0.6c-0.2-0.1-0.5-0.2-0.9-0.2c-0.3,0-0.6,0.1-0.9,0.2c-0.2,0.1-0.4,0.4-0.6,0.6
	c-0.1,0.3-0.2,0.6-0.2,0.9v2.3c0,0.4,0.1,0.7,0.2,0.9c0.1,0.3,0.3,0.5,0.6,0.6c0.2,0.1,0.5,0.2,0.9,0.2
	C97,113.9,97.3,113.8,97.5,113.7z"/>
<path fill="#868686" d="M100.3,107.1h1.2l1.9,6.1l1.9-6.1h1.2l-2.5,7.8h-1L100.3,107.1z"/>
<path fill="#868686" d="M107.6,107.1h1.1v7.8h-1.1V107.1z M108.1,107.1h4.5v1h-4.5V107.1z M108.1,110.5h3.9v1h-3.9V110.5z
	 M108.1,113.9h4.5v1h-4.5V113.9z"/>
<path fill="#868686" d="M116,107.1h1.1v7.8H116V107.1z M116.6,107.1h4.4v1h-4.4V107.1z M116.6,110.6h3.8v1h-3.8V110.6z"/>
<path fill="#868686" d="M123.3,114.6c-0.4-0.2-0.7-0.6-1-1s-0.3-0.9-0.3-1.5v-2.2c0-0.6,0.1-1.1,0.3-1.5c0.2-0.4,0.5-0.8,1-1
	s0.9-0.4,1.4-0.4s1,0.1,1.4,0.4s0.7,0.6,1,1c0.2,0.4,0.3,0.9,0.3,1.5v2.2c0,0.6-0.1,1.1-0.3,1.5s-0.5,0.8-1,1
	c-0.4,0.2-0.9,0.4-1.4,0.4S123.7,114.9,123.3,114.6z M125.6,113.7c0.2-0.1,0.4-0.4,0.6-0.6c0.1-0.3,0.2-0.6,0.2-0.9v-2.3
	c0-0.4-0.1-0.7-0.2-0.9c-0.1-0.3-0.3-0.5-0.6-0.6c-0.2-0.1-0.5-0.2-0.9-0.2c-0.3,0-0.6,0.1-0.9,0.2c-0.2,0.1-0.4,0.4-0.6,0.6
	c-0.1,0.3-0.2,0.6-0.2,0.9v2.3c0,0.4,0.1,0.7,0.2,0.9c0.1,0.3,0.3,0.5,0.6,0.6c0.2,0.1,0.5,0.2,0.9,0.2
	C125.1,113.9,125.4,113.8,125.6,113.7z"/>
<path fill="#868686" d="M129.3,107.1h1.1v7.8h-1.1V107.1z M129.8,110.5h2.7c0.2,0,0.4-0.1,0.6-0.2c0.2-0.1,0.3-0.2,0.4-0.4
	s0.1-0.4,0.1-0.6s0-0.5-0.1-0.6c-0.1-0.2-0.2-0.3-0.4-0.4c-0.2-0.1-0.3-0.2-0.6-0.2h-2.7v-1h2.6c0.5,0,0.8,0.1,1.2,0.3
	c0.3,0.2,0.6,0.5,0.8,0.8c0.2,0.3,0.3,0.7,0.3,1.2s-0.1,0.8-0.3,1.2c-0.2,0.3-0.5,0.6-0.8,0.8c-0.3,0.2-0.7,0.3-1.2,0.3h-2.6V110.5z
	 M131.9,111.3l1.1-0.2l2,3.8h-1.3L131.9,111.3z"/>
<path fill="#868686" d="M139.8,107.1h0.8l1.6,6.1l1.4-6.1h1.1l-1.9,7.8h-1.1l-1.4-5.5l-1.5,5.5h-1.1l-1.9-7.8h1.1l1.4,6.1
	L139.8,107.1z"/>
<path fill="#868686" d="M147.4,107.1h0.9l2.9,7.8h-1.2l-2.2-6.3l-2.2,6.3h-1.2L147.4,107.1z M145.9,112.1h4.1v1h-4.1V112.1z"/>
<path fill="#868686" d="M152.4,107.1h1.1v7.8h-1.1V107.1z M152.9,110.5h2.7c0.2,0,0.4-0.1,0.6-0.2c0.2-0.1,0.3-0.2,0.4-0.4
	s0.1-0.4,0.1-0.6s0-0.5-0.1-0.6c-0.1-0.2-0.2-0.3-0.4-0.4c-0.2-0.1-0.3-0.2-0.6-0.2h-2.7v-1h2.6c0.5,0,0.8,0.1,1.2,0.3
	c0.3,0.2,0.6,0.5,0.8,0.8c0.2,0.3,0.3,0.7,0.3,1.2s-0.1,0.8-0.3,1.2c-0.2,0.3-0.5,0.6-0.8,0.8c-0.3,0.2-0.7,0.3-1.2,0.3h-2.6V110.5z
	 M155,111.3l1.1-0.2l2,3.8h-1.3L155,111.3z"/>
<path fill="#868686" d="M159.4,107.1h1.1v7.8h-1.1V107.1z M160.2,113.9h1.8c0.6,0,1-0.2,1.3-0.4c0.3-0.3,0.5-0.7,0.5-1.3v-2.3
	c0-0.5-0.2-1-0.5-1.3c-0.3-0.3-0.8-0.4-1.3-0.4h-1.8v-1h1.7c0.6,0,1.2,0.1,1.6,0.3c0.4,0.2,0.8,0.5,1,1c0.2,0.4,0.3,0.9,0.3,1.5v2.2
	c0,0.6-0.1,1.1-0.3,1.5c-0.2,0.4-0.6,0.7-1,1s-1,0.3-1.6,0.3h-1.7V113.9z"/>
<g>
	<path fill="#FF5500" d="M42.6,83.4c-0.9-0.9-2-1.7-3.3-2.4c-1.3-0.7-2.6-1.4-4.1-2c-1.5-0.6-2.7-1.2-3.7-1.6
		c-1-0.5-1.8-0.9-2.3-1.3c-0.6-0.4-1-0.8-1.2-1.3c-0.2-0.4-0.4-0.9-0.4-1.5c0-1.1,0.6-2.1,1.7-3c1.1-0.9,2.7-1.4,4.7-1.4
		c2.1,0,4,0.4,5.6,1.2c1.6,0.8,3.2,2,4.9,3.5l6.6-6.6c-1.9-2-4.1-3.6-6.7-4.7c-2.6-1.2-5.8-1.7-9.6-1.7c-2.3,0-4.5,0.3-6.6,1
		c-2.1,0.7-3.9,1.6-5.5,2.9c-1.6,1.2-2.8,2.8-3.8,4.5c-0.9,1.8-1.4,3.8-1.4,6c0,1.6,0.3,3,0.9,4.2c0.6,1.2,1.4,2.3,2.4,3.2
		c1,0.9,2.1,1.7,3.4,2.4c1.3,0.7,2.6,1.3,4,1.9c1.5,0.6,2.7,1.1,3.6,1.6c1,0.5,1.7,0.9,2.3,1.4c0.6,0.4,1,0.9,1.2,1.3
		c0.2,0.4,0.3,0.9,0.3,1.5c0,1.4-0.6,2.5-1.9,3.3c-1.2,0.8-2.8,1.2-4.8,1.2c-2.5,0-4.7-0.5-6.7-1.5c-2-1-3.8-2.4-5.5-4.3l-7.2,6.1
		c4.2,5.4,10.5,8,19,8c2.3,0,4.5-0.3,6.6-1c2.1-0.6,3.9-1.6,5.5-2.8c1.6-1.2,2.8-2.8,3.8-4.6c1-1.8,1.4-3.9,1.4-6.1
		c0-1.6-0.3-3-0.8-4.2C44.3,85.4,43.5,84.3,42.6,83.4z"/>
	<path fill="#FF5500" d="M157.2,93.4l3.7-14.1h7.9l2.2-8h-7.9l2.3-8.5h-9.5l-2.3,8.5h-8.2h-2.8h-5.2l0.2-0.9
		c0.6-2.4,2.2-3.6,4.7-3.6c0.7,0,1.4,0.1,2.1,0.2c0.7,0.1,1.4,0.3,2,0.6l2.1-7.9c-0.8-0.3-1.7-0.5-2.8-0.7s-2.3-0.3-3.6-0.3
		c-3.5,0-6.4,0.8-8.7,2.5s-3.9,4.4-4.8,8.2l-0.4,1.8h-10.7h-9.5h-6.4h-5.4h-4l-11,20.3l-0.9-20.4H72L60.3,91.5l0.1-20.2h-9.6
		l1.2,33.6h8.5l12-20.5l0.9,20.5H82l14.8-25.6h8.8l-6.8,25.4h9.5l6.8-25.4h10.8l-6.9,25.4h9.5l6.9-25.4h5h2.8h8.2l-4,15.2
		c-0.2,0.8-0.4,1.5-0.5,2.1s-0.2,1.4-0.2,2.1c0,1.9,0.7,3.4,2.1,4.7c1.4,1.2,3.6,1.9,6.4,1.9c2.6,0,4.9-0.5,6.9-1.4l2.2-8
		c-0.8,0.3-1.6,0.6-2.5,0.8c-0.9,0.2-1.7,0.3-2.4,0.3c-1.7,0-2.6-0.7-2.6-2c0-0.2,0-0.4,0.1-0.7C157,93.9,157.1,93.6,157.2,93.4z"/>
</g>
<path fill="#868686" d="M108.8,61.9l-2.5,5.1c6.6,0.2,12.8-1.1,18.2-5.1l-3.5-8.4C117.6,58.6,113.6,61.5,108.8,61.9z"/>
</svg>
